<?xml version="1.0" encoding="utf-8"?>
<!-- Generator: Adobe Illustrator 27.5.0, SVG Export Plug-In . SVG Version: 6.00 Build 0)  -->
<svg version="1.1" xmlns="http://www.w3.org/2000/svg" xmlns:xlink="http://www.w3.org/1999/xlink" x="0px" y="0px"
	 viewBox="0 0 500 500" style="enable-background:new 0 0 500 500;" xml:space="preserve">
<g id="BACKGROUND">
	<rect style="fill:#FFFFFF;" width="500" height="500"/>
</g>
<g id="OBJECTS">
	<g>
		<g>
			<g>
				<linearGradient id="SVGID_1_" gradientUnits="userSpaceOnUse" x1="239.7749" y1="63.5631" x2="250.2636" y2="150.8875">
					<stop  offset="0.1902" style="stop-color:#D64545"/>
					<stop  offset="0.956" style="stop-color:#FDA158"/>
					<stop  offset="1" style="stop-color:#FFA659"/>
				</linearGradient>
				<path style="fill:url(#SVGID_1_);" d="M300.365,106.718c-13.096,14.629-21.943,9.353-23.435-13.669
					c-8.593,21.463-22.249,12.297-28.151-20.091c-5.902,32.388-19.558,41.554-28.151,20.091
					c-1.479,23.022-10.339,28.298-23.435,13.669c6.781,17.999,4.85,32.908-3.091,37.877c16.121-9.233,34.773-14.522,54.677-14.522
					c19.905,0,38.57,5.289,54.677,14.522C295.515,139.639,293.557,124.717,300.365,106.718z M225.304,122.958
					c-1.879,0-3.384-1.519-3.384-3.384c0-1.865,1.506-3.384,3.384-3.384c1.865,0,3.384,1.519,3.384,3.384
					C228.687,121.44,227.169,122.958,225.304,122.958z M248.778,122.958c-1.012-5.826-3.104-7.954-8.047-9.267
					c4.943-1.301,7.035-3.442,8.047-9.255c1.026,5.813,3.104,7.954,8.06,9.255C251.883,115.005,249.804,117.133,248.778,122.958z
					 M272.267,122.958c-1.865,0-3.384-1.519-3.384-3.384c0-1.865,1.519-3.384,3.384-3.384c1.865,0,3.384,1.519,3.384,3.384
					C275.651,121.44,274.132,122.958,272.267,122.958z"/>
				
					<linearGradient id="SVGID_00000130629906867831884710000004138161874365692590_" gradientUnits="userSpaceOnUse" x1="231.5336" y1="164.1309" x2="247.6069" y2="297.9507" gradientTransform="matrix(0.9879 0.1548 -0.1548 0.9879 39.1322 -36.228)">
					<stop  offset="0.1902" style="stop-color:#D64545"/>
					<stop  offset="0.956" style="stop-color:#FDA158"/>
					<stop  offset="1" style="stop-color:#FFA659"/>
				</linearGradient>
				<path style="fill:url(#SVGID_00000130629906867831884710000004138161874365692590_);" d="M243.827,296.817
					c4.632-5.208,2.364-14.315-5.757-17.826c-8.158-3.53-17.971-0.982-22.195-1.306c-4.943-0.383-7.463-3.664-6.812-7.392
					c0.517-2.953,2.479-9.537,2.921-12.704c0.508-3.67-2.025-5.577-1.666-8.299c0.227-1.704,1.788-2.633,3.65-3.069
					c-1.915-0.947-3.166-2.344-2.642-4.743c0.732-3.297,4.777-6.817,5.259-9.897c0.813-5.186-4.56-8.078-3.451-12.057
					c1.16-4.134,12.157-4.69,20.552-9.294c8.791-4.812,4.431-19.844,15.858-32.267c-5.561,12.169-4.516,26.668,3.271,44.192
					c3.713,8.322,12.536,22.152,14.725,32.973C270.701,270.672,264.981,289.532,243.827,296.817z"/>
				
					<linearGradient id="SVGID_00000121243697842949551920000013808934637502533547_" gradientUnits="userSpaceOnUse" x1="296.3539" y1="293.2356" x2="269.8006" y2="154.3414">
					<stop  offset="0" style="stop-color:#FF3E54"/>
					<stop  offset="0.6567" style="stop-color:#FF99A2"/>
					<stop  offset="1" style="stop-color:#FFCBCC"/>
				</linearGradient>
				<path style="fill:url(#SVGID_00000121243697842949551920000013808934637502533547_);" d="M280.958,302.635
					c34.516-60.63-36.138-85.915-20.994-129.891c1.045,18.032,23.837,35.925,37.216,56.658
					C316.463,259.272,309.958,285.642,280.958,302.635z"/>
				
					<linearGradient id="SVGID_00000039812361679810460400000002887002206043559592_" gradientUnits="userSpaceOnUse" x1="275.4841" y1="126.856" x2="299.4006" y2="325.9746">
					<stop  offset="0.1902" style="stop-color:#D64545"/>
					<stop  offset="0.956" style="stop-color:#FDA158"/>
					<stop  offset="1" style="stop-color:#FFA659"/>
				</linearGradient>
				<path style="fill:url(#SVGID_00000039812361679810460400000002887002206043559592_);" d="M346.577,255.307
					c-4.966,31.695-24.644,57.444-50.988,71.346c27.412-21.921,38.391-52.741,36.45-81.756c0.002-0.013,0.002-0.013,0.004-0.026
					c-0.881-13.313-4.489-26.258-10.467-37.768c-11.98-23.036-33.302-40.496-56.809-46.512c-14.471-3.697-29.78-3.075-44.229,3.251
					c25.305-13.377,57.28-16.054,87.717-0.995c1.503,0.734,2.985,1.52,4.474,2.346l0.026,0.004
					C338.141,186.503,352.082,220.176,346.577,255.307z"/>
				
					<linearGradient id="SVGID_00000133493717289810072470000005329349532088609952_" gradientUnits="userSpaceOnUse" x1="347.6895" y1="260.9779" x2="216.9657" y2="350.8505">
					<stop  offset="0" style="stop-color:#FF3E54"/>
					<stop  offset="0.6567" style="stop-color:#FF99A2"/>
					<stop  offset="1" style="stop-color:#FFCBCC"/>
				</linearGradient>
				<path style="fill:url(#SVGID_00000133493717289810072470000005329349532088609952_);" d="M295.589,326.652
					c-0.015,0.011-0.015,0.011-0.03,0.022c-17.979,9.482-39.061,13.474-60.7,10.083c-9.977-1.563-19.359-4.598-27.989-8.822
					c49.321,18.732,93.006-10.82,113.279-46.306c6.929-12.117,11.132-24.917,11.891-36.732
					C333.979,273.911,323.001,304.732,295.589,326.652z"/>
				
					<linearGradient id="SVGID_00000071525498184446291080000000992226908149910924_" gradientUnits="userSpaceOnUse" x1="148.193" y1="257.2681" x2="305.0396" y2="154.3723">
					<stop  offset="0" style="stop-color:#FF3E54"/>
					<stop  offset="0.6567" style="stop-color:#FF99A2"/>
					<stop  offset="1" style="stop-color:#FFCBCC"/>
				</linearGradient>
				<path style="fill:url(#SVGID_00000071525498184446291080000000992226908149910924_);" d="M312.729,165.193
					c-31.759-17.639-65.651-15.384-92.191-1.351c-10.881,5.753-20.535,13.491-28.294,22.645
					c-27.106,32.015-31.196,81.271-1.468,110.068c-20.255-15.149-41.349-42.674-37.479-70.643c0.032-0.292,0.077-0.581,0.123-0.871
					c1.343-8.569,3.763-16.699,7.095-24.282c17.414-39.616,59.844-64.173,104.609-57.159
					C283.327,146.453,299.572,154.15,312.729,165.193z"/>
				
					<linearGradient id="SVGID_00000086653788705422816150000014515983854295916948_" gradientUnits="userSpaceOnUse" x1="267.7437" y1="323.1168" x2="140.3748" y2="231.9007">
					<stop  offset="0" style="stop-color:#D64545"/>
					<stop  offset="0.9456" style="stop-color:#FDA158"/>
					<stop  offset="1" style="stop-color:#FFA659"/>
				</linearGradient>
				<path style="fill:url(#SVGID_00000086653788705422816150000014515983854295916948_);" d="M238.197,325.045
					c-21.831,4.353-52.645-7.328-67.194-27.284c-14.573-19.998-21.61-45.491-17.711-71.854
					c-3.864,27.97,17.226,55.494,37.486,70.651c6.336,4.737,12.582,8.268,17.969,10.226c26.72,9.718,57.904,7.332,68.412-24.431
					C275.521,307.965,257.649,321.162,238.197,325.045z"/>
				
					<linearGradient id="SVGID_00000101071034538076266000000007092010534654119845_" gradientUnits="userSpaceOnUse" x1="295.8224" y1="161.8214" x2="201.5151" y2="321.843" gradientTransform="matrix(0.9879 0.1548 -0.1548 0.9879 39.1322 -36.228)">
					<stop  offset="0" style="stop-color:#7B728C"/>
					<stop  offset="1" style="stop-color:#FFA659;stop-opacity:0"/>
				</linearGradient>
				<path style="fill:url(#SVGID_00000101071034538076266000000007092010534654119845_);" d="M243.827,296.817
					c16.007-12.754,14.932-34.703,6.286-57.058c-8.286-21.424-12.221-47.94-0.568-61.798c-5.561,12.169-4.516,26.668,3.271,44.192
					c3.713,8.322,12.536,22.152,14.725,32.973C270.701,270.672,264.981,289.532,243.827,296.817z"/>
				
					<linearGradient id="SVGID_00000171706491271543803580000006890853289774176443_" gradientUnits="userSpaceOnUse" x1="313.2315" y1="164.0972" x2="227.2588" y2="309.9766" gradientTransform="matrix(0.9879 0.1548 -0.1548 0.9879 39.1322 -36.228)">
					<stop  offset="0" style="stop-color:#7B728C"/>
					<stop  offset="1" style="stop-color:#FFA659;stop-opacity:0"/>
				</linearGradient>
				<path style="fill:url(#SVGID_00000171706491271543803580000006890853289774176443_);" d="M280.958,302.635
					c34.516-60.63-36.138-85.915-20.994-129.891C251.873,205.446,336.003,254.54,280.958,302.635z"/>
				
					<linearGradient id="SVGID_00000002372631851080470170000003378793532298066839_" gradientUnits="userSpaceOnUse" x1="208.0528" y1="130.8847" x2="279.8294" y2="180.5499" gradientTransform="matrix(0.9879 0.1548 -0.1548 0.9879 39.1322 -36.228)">
					<stop  offset="0" style="stop-color:#7B728C"/>
					<stop  offset="1" style="stop-color:#FFA659;stop-opacity:0"/>
				</linearGradient>
				<path style="fill:url(#SVGID_00000002372631851080470170000003378793532298066839_);" d="M308.256,162.846
					c-10.19-4.334-27.333-6.211-43.488-2.256c-14.471-3.697-29.78-3.075-44.229,3.251
					C245.843,150.464,277.818,147.788,308.256,162.846z"/>
				
					<linearGradient id="SVGID_00000080186839801026681850000012793156787470582423_" gradientUnits="userSpaceOnUse" x1="363.6843" y1="205.7785" x2="278.4138" y2="350.4663" gradientTransform="matrix(0.9879 0.1548 -0.1548 0.9879 39.1322 -36.228)">
					<stop  offset="0" style="stop-color:#7B728C"/>
					<stop  offset="1" style="stop-color:#FFA659;stop-opacity:0"/>
				</linearGradient>
				<path style="fill:url(#SVGID_00000080186839801026681850000012793156787470582423_);" d="M295.589,326.652
					c9.146-7.508,19.82-25.794,24.559-45.023c6.929-12.117,11.132-24.917,11.891-36.732
					C333.979,273.911,323.001,304.732,295.589,326.652z"/>
				
					<linearGradient id="SVGID_00000165941162596571161340000008950499762944390847_" gradientUnits="userSpaceOnUse" x1="184.4285" y1="374.616" x2="171.5018" y2="190.2413" gradientTransform="matrix(0.9879 0.1548 -0.1548 0.9879 39.1322 -36.228)">
					<stop  offset="0" style="stop-color:#7B728C"/>
					<stop  offset="1" style="stop-color:#FFA659;stop-opacity:0"/>
				</linearGradient>
				<path style="fill:url(#SVGID_00000165941162596571161340000008950499762944390847_);" d="M190.776,296.555
					c-20.255-15.149-41.349-42.674-37.479-70.643c0.032-0.292,0.077-0.581,0.123-0.871c1.343-8.569,3.763-16.699,7.095-24.282
					C157.05,247.146,172.371,281.993,190.776,296.555z"/>
			</g>
			
				<linearGradient id="SVGID_00000086655476372340281250000008719798635380941211_" gradientUnits="userSpaceOnUse" x1="211.3123" y1="149.355" x2="208.3642" y2="88.5797">
				<stop  offset="0" style="stop-color:#7B728C"/>
				<stop  offset="1" style="stop-color:#FFA659;stop-opacity:0"/>
			</linearGradient>
			<path style="fill:url(#SVGID_00000086655476372340281250000008719798635380941211_);" d="M220.627,93.048
				c1.932,32.721-13.323,31.909-23.435,13.669C210.289,121.346,219.148,116.07,220.627,93.048z"/>
			
				<linearGradient id="SVGID_00000173850879472812659920000007367865345491331725_" gradientUnits="userSpaceOnUse" x1="234.9037" y1="129.1996" x2="234.6769" y2="77.0415">
				<stop  offset="0" style="stop-color:#7B728C"/>
				<stop  offset="1" style="stop-color:#FFA659;stop-opacity:0"/>
			</linearGradient>
			<path style="fill:url(#SVGID_00000173850879472812659920000007367865345491331725_);" d="M248.778,72.957
				c-4.45,40.528-21.916,46.724-28.151,20.091C229.22,114.512,242.876,105.345,248.778,72.957z"/>
			
				<linearGradient id="SVGID_00000148654815727049433530000001881128187377108371_" gradientUnits="userSpaceOnUse" x1="297.2952" y1="149.355" x2="294.3471" y2="88.5797" gradientTransform="matrix(-1 0 0 1 583.54 0)">
				<stop  offset="0" style="stop-color:#7B728C"/>
				<stop  offset="1" style="stop-color:#FFA659;stop-opacity:0"/>
			</linearGradient>
			<path style="fill:url(#SVGID_00000148654815727049433530000001881128187377108371_);" d="M276.93,93.048
				c-1.932,32.721,13.323,31.909,23.435,13.669C287.268,121.346,278.409,116.07,276.93,93.048z"/>
			
				<linearGradient id="SVGID_00000108272019208244118050000003375631070871575458_" gradientUnits="userSpaceOnUse" x1="320.8867" y1="129.1996" x2="320.6599" y2="77.0415" gradientTransform="matrix(-1 0 0 1 583.54 0)">
				<stop  offset="0" style="stop-color:#7B728C"/>
				<stop  offset="1" style="stop-color:#FFA659;stop-opacity:0"/>
			</linearGradient>
			<path style="fill:url(#SVGID_00000108272019208244118050000003375631070871575458_);" d="M248.778,72.957
				c4.45,40.528,21.916,46.724,28.151,20.091C268.337,114.512,254.681,105.345,248.778,72.957z"/>
		</g>
		<text transform="matrix(1 0 0 1 99.0063 396.2178)"><tspan x="0" y="0" style="fill:#ED3F6F; font-family:'Cinzel-Regular'; font-size:52.3832px;">Hair</tspan><tspan x="127.761" y="0" style="fill:#ED3F6F; font-family:'Cinzel-Bold'; font-size:52.3832px;">Salon</tspan></text>
		
			<text transform="matrix(1 0 0 1 142.6177 422.4004)" style="fill:#FF7E4D; font-family:'Montserrat-Light'; font-size:17.7851px; letter-spacing:7;">SUBTEXT HERE</text>
	</g>
</g>
</svg>
